PathFileType	4	(X/Y/Z)	Patient5_TMGait_0pt45_1_right_10.trc.trc
DataRate	CameraRate	NumFrames	NumMarkers	Units	OrigDataRate	OrigDataStartFrame	OrigNumFrames
58.333333333333	58.333333333333	4	32	mm	58.333333333333	89	       141
Frame#	Time	R.ASIS			L.ASIS			Chest			R.Shoulder			Neck			L.Shoulder			L.Elbow			L.Wrist			R.Elbow			R.Wrist			L.Thigh.Superior			L.Thigh.Lateral			L.Thigh.Inferior			L.Patella			L.Shank.Superior			L.Shank.Lateral			L.Shank.Inferior			L.Heel			L.Midfoot.Lateral			L.Midfoot.Superior			L.Toe			R.Thigh.Superior			R.Thigh.Lateral			R.Thigh.Inferior			R.Patella			R.Shank.Superior			R.Shank.Lateral			R.Shank.Inferior			R.Heel			R.Midfoot.Lateral			R.Midfoot.Superior			R.Toe			
		X1	Y1	Z1	X2	Y2	Z2	X3	Y3	Z3	X4	Y4	Z4	X5	Y5	Z5	X6	Y6	Z6	X7	Y7	Z7	X8	Y8	Z8	X9	Y9	Z9	X10	Y10	Z10	X11	Y11	Z11	X12	Y12	Z12	X13	Y13	Z13	X14	Y14	Z14	X15	Y15	Z15	X16	Y16	Z16	X17	Y17	Z17	X18	Y18	Z18	X19	Y19	Z19	X20	Y20	Z20	X21	Y21	Z21	X22	Y22	Z22	X23	Y23	Z23	X24	Y24	Z24	X25	Y25	Z25	X26	Y26	Z26	X27	Y27	Z27	X28	Y28	Z28	X29	Y29	Z29	X30	Y30	Z30	X31	Y31	Z31	X32	Y32	Z32	

89	17.828571428571	922.811586453069	1006.811913856097	517.423288644823	940.453883759662	964.693994549802	280.143864691830	1010.252123840164	1447.583829991806	404.677550233751	879.634852312449	1514.841474907264	546.515125475154	897.867964924464	1574.270660806661	362.154516418624	997.829389628257	1515.051056418620	201.899041315687	989.078667886941	1192.013142837913	66.499393839902	1126.316518387382	941.484553412914	114.343761492525	757.342395095574	1199.610106816985	667.158439783012	976.369272183690	1009.622296359851	645.704748816276	961.136549784032	749.270975392464	279.098688128256	890.086107492213	676.886380009993	241.125755482449	963.716341433898	621.784929354270	306.884503340102	966.131554975494	505.752479258116	319.459089893420	918.025607927585	403.322404861091	344.096887385049	851.361914953736	331.968033441286	267.578679782518	883.372133761706	280.926464181276	357.380372554678	749.134417916304	50.430377215587	368.425856684031	838.581684965811	26.252660956636	309.207012090419	935.001363118449	89.562391154637	354.501168249152	1041.932572957576	46.913094958637	362.454747921158	955.360278162584	791.357655542183	573.351388296356	871.889384669462	715.518499259095	631.002370459275	963.330861398550	657.741888666858	578.276076081391	960.320517565675	554.640355139221	623.024736574081	882.955521602969	456.115409548415	586.808681055444	779.923306781952	427.811404646118	660.123457383388	808.899319849238	335.169164893795	587.902005578505	612.032021377999	184.991065385256	546.462474489587	654.572548487542	121.545971976305	626.829544325883	780.220743174246	130.425041010636	628.150645163121	850.461208067233	45.688377837769	639.522588437513	
90	17.845714285714	922.495128677616	1007.371420801056	516.209495267424	938.268316141075	964.764200529488	278.708473730071	1008.510477226000	1448.137502775788	401.759294400019	878.386729418048	1515.384057014316	543.937729858387	895.925215335016	1574.673558741322	359.467900962583	995.576473173427	1515.432953918913	199.107077599761	989.511625199242	1191.831808425795	64.796629055857	1129.866342438978	943.243255081247	113.666510878149	755.692649157427	1200.563650215497	665.201705945132	973.355071456600	1009.174596136226	642.075030986461	957.353230278196	748.857181874788	278.137080206315	885.232814304811	677.103609588821	240.669355631743	958.593380183443	621.138029143052	305.648364715726	960.067286742690	505.214165628252	318.102479177871	911.626722296175	403.182867005679	343.175719313736	844.024314733636	332.152378112697	267.239288531079	876.539900655677	280.941671556201	356.738020648665	741.353076997182	50.287486916260	368.580804889252	830.820810936335	26.267835295095	309.194264091324	927.291390918794	89.575382638287	354.317255548635	1034.161108059531	46.950606766351	362.369547386975	953.692742063045	791.934545779903	570.253160700898	869.980263838554	716.714238987386	629.623280274335	960.500787592192	658.775237251708	576.211119525934	958.526635111267	556.751808352039	621.920391565419	885.274722115187	456.489422507959	587.047302035643	783.508990916846	424.888950909788	660.214416470774	817.609415352239	332.555027507603	590.197041205522	629.286050678439	170.730516388395	549.834699679562	674.314010717159	112.147792247961	632.617917591273	799.089565209314	128.019047005590	635.007130106868	873.798385361183	47.761190282588	649.740309905517	
91	17.862857142857	921.955432771079	1007.772846832258	515.150732233844	936.119714900085	964.769572499009	277.446624829089	1006.701124312194	1448.522056131274	398.977867998308	877.144174314740	1515.869084944060	541.497792198328	893.918392089694	1574.929492029219	356.889883827429	993.197452978700	1515.551266735014	196.417251790052	989.757032130630	1191.380734577290	63.283035020698	1132.990426136612	944.683050064844	113.313111378543	754.367596781555	1201.457387092401	663.669065952054	970.681461838955	1008.757271015790	638.543945163819	953.622926286979	748.376193782044	277.313620102054	880.471898672493	677.201633460039	240.338279205508	953.536247257839	620.490693305081	304.607526043338	954.070806388667	504.651629161471	316.916595699843	905.267505314966	403.005115768967	342.365595219936	836.790269548184	332.317861065612	266.954991495093	869.761362573656	280.954932065657	356.206410847247	733.579962717517	50.139100683223	368.749932383393	823.068136885956	26.284286469987	309.186572499026	919.576412066335	89.578387049966	354.157019039898	1026.394783248044	46.970957416419	362.303045374317	951.522753793424	792.261138124105	567.476413117920	867.659425451557	717.648837798901	628.402299027944	957.389466495571	659.621536087000	574.335571801379	956.654771729898	558.776069359631	620.981122046831	888.146548081102	456.952394786076	587.405326798811	787.867776772671	421.588673437769	660.355699514894	827.528716785218	330.009499907999	592.561556531342	649.050263691792	156.336618319998	553.375679147032	696.483591521354	102.734858645870	638.336734475560	819.978900633683	126.010333583044	641.731658335104	899.171303475704	50.709275805783	659.587072365665	
92	17.880000000000	921.190707772998	1008.033169059527	514.229046744361	933.987219183579	964.696787115370	276.360920612148	1004.812347212448	1448.749712505271	396.380942793657	875.851450186668	1516.300446498667	539.218054344234	891.849171988409	1575.048487653542	354.453524966065	990.703582510334	1515.408752319886	193.861309499690	989.802530698805	1190.660119153628	61.994404683557	1135.668402524729	945.777134015928	113.244581071814	753.299133796063	1202.262451347083	662.503032219181	968.378004026386	1008.444660737841	635.171047194195	949.944384119880	747.839783489909	276.622127375910	875.838150012910	677.219288151543	240.083254270337	948.590289316184	619.862286282967	303.748443253936	948.160092197010	504.063917527080	315.875309838549	898.965495310442	402.792218666829	341.643366697686	829.664477336408	332.470017670161	266.710337250098	863.052571889322	280.965364459195	355.769567315025	725.823631280580	50.042430834776	368.883755661120	815.323501855078	26.301038501540	309.183602207317	911.858617264748	89.570169067929	354.019464234700	1018.636056357780	46.970388478344	362.253594629059	949.010286848268	792.448458504536	565.196939509516	865.190319993973	718.365997096556	627.414743677222	954.344626310228	660.389525014809	572.737275166166	955.058644793576	560.775064900736	620.253895906538	891.738165079730	457.658282689212	587.869407556890	793.156118850838	418.228558772038	660.572943786769	838.537667023366	327.873249181179	594.873737768999	670.823151326859	142.755378636197	556.958654483153	720.521209986960	94.006154713209	643.700518392646	842.321963237559	124.780238259515	647.940503429758	925.801292336265	54.722569619204	668.442944264971	
